
<svg xmlns="http://www.w3.org/2000/svg" version="1.1" xmlns:xlink="http://www.w3.org/1999/xlink" preserveAspectRatio="none" x="0px" y="0px" width="200px" height="200px" viewBox="0 0 200 200">
<defs>
<g id="Layer0_0_FILL">
<path fill="#FFFFFF" stroke="none" d="
M 126 44.2
Q 135.15 44.2 138.8 45.9 145.35 49.15 149.05 54.5 152.85 59.75 155.9 71.95
L 159.35 71.95 159.35 36.7 42.25 36.7 42.25 71.95 45.9 71.95
Q 48.15 57.5 56.5 49.75 62.45 44.2 75.6 44.2
L 85.05 44.2 85.05 144.8
Q 85.05 154.6 83.95 156.9 82.55 160.15 80.05 161.55 76.6 163.55 70.9 163.55
L 66.6 163.55 66.6 167.1 134.85 167.1 134.85 163.55 130.55 163.55
Q 124.95 163.55 121.8 161.75 118.5 159.8 117.45 157.3 116.25 154.8 116.25 144.8
L 116.25 44.2 126 44.2 Z"/>
</g>
</defs>

<g transform="matrix( 1, 0, 0, 1, 0,0) ">
<use xlink:href="#Layer0_0_FILL"/>
</g>
</svg>
