
<svg xmlns="http://www.w3.org/2000/svg" version="1.1" xmlns:xlink="http://www.w3.org/1999/xlink" preserveAspectRatio="none" x="0px" y="0px" width="500px" height="500px" viewBox="0 0 500 500">
<defs>
<g id="Layer2_0_FILL">
<path fill="#FFFFFF" stroke="none" d="
M 493.7 250
Q 493.7 149.15 422.2 77.65 350.7 6.35 250 6.35 149.15 6.35 77.85 77.65 6.35 149.15 6.35 250 6.35 350.7 77.85 422.2 149.15 493.7 250 493.7 350.7 493.7 422.2 422.2 493.7 350.7 493.7 250 Z"/>
</g>

<g id="Layer1_0_FILL">
<path fill="#065E88" stroke="none" d="
M 483.9 250
Q 483.9 152.9 415.5 84.55 346.9 16.15 250 16.15 152.9 16.15 84.75 84.55 16.15 152.9 16.15 250 16.15 346.9 84.75 415.5 152.9 483.9 250 483.9 346.9 483.9 415.5 415.5 483.9 346.9 483.9 250
M 450.45 250
Q 450.45 332.85 391.65 391.65 332.85 450.45 250 450.45 166.95 450.45 108.4 391.65 49.6 332.85 49.6 250 49.6 166.95 108.4 108.15 166.95 49.6 250 49.6 332.85 49.6 391.65 108.15 450.45 166.95 450.45 250 Z"/>
</g>

<g id="Layer0_0_FILL">
<path fill="#065E88" stroke="none" d="
M 363.6 153.35
L 337.35 169.85
Q 324.85 157.8 309.05 149.8
L 317.95 119.05
Q 305.7 113.05 289.65 108.8 275.4 104.8 261.85 103.5
L 254.25 134.9
Q 237.1 134.2 219.75 138.45
L 203.9 110.6
Q 191.45 115.95 180.1 123.5 165.6 130.65 155.6 141.1
L 170.75 166.5
Q 157.15 178.3 148.7 193.7
L 120.65 187.2
Q 115.5 198.6 111.7 212.4 107.7 227.3 106.6 242.45
L 133.1 249.6
Q 132.9 268.75 136.9 285.2
L 113.95 298.15
Q 119.05 310.85 126.85 322.65 133.55 336.65 144 347.15
L 166.75 335.55
Q 178.55 348.7 193.9 357.15
L 187.45 381.85
Q 199.7 387.2 213.95 391.25 230 395.45 243.55 396.8
L 250 372.05
Q 268.95 372.95 285.2 367.15
L 298.6 388.35
Q 311.7 384.3 325.1 375.65 337.75 369.4 347.15 360.7
L 335.1 338.2
Q 347.55 326.2 356.5 309.5
L 383.2 316.6
Q 389 302.6 393 287.65 396.8 273.85 397.9 261.6
L 371.4 253.35
Q 371.4 235.55 366.95 219.05
L 392.8 204.6
Q 387.9 190.55 378.3 176.55 371.65 164.3 363.6 153.35
M 308.8 248.9
Q 308.8 272.5 292.1 289.2 275.65 305.7 252.05 305.7 228.65 305.7 211.7 289.2 195.25 272.5 195.25 248.9 195.25 225.3 211.7 208.8 228.65 192.1 252.05 192.1 275.65 192.1 292.1 208.8 308.8 225.3 308.8 248.9 Z"/>
</g>
</defs>

<g transform="matrix( 1, 0, 0, 1, 0,0) ">
<use xlink:href="#Layer2_0_FILL"/>
</g>

<g transform="matrix( 1, 0, 0, 1, 0,0) ">
<use xlink:href="#Layer1_0_FILL"/>
</g>

<g transform="matrix( 1, 0, 0, 1, 0,0) ">
<use xlink:href="#Layer0_0_FILL"/>
</g>
</svg>
